<mxfile host="app.diagrams.net" agent="Mozilla/5.0 (Windows NT 10.0; Win64; x64) AppleWebKit/537.36 (KHTML, like Gecko) Chrome/133.0.0.0 Safari/537.36" version="26.0.11">
  <diagram name="Page-1" id="CyW6aP-Xm8CD-qENMy1q">
    <mxGraphModel dx="1167" dy="619" grid="1" gridSize="10" guides="1" tooltips="1" connect="1" arrows="1" fold="1" page="1" pageScale="1" pageWidth="827" pageHeight="1169" math="0" shadow="0">
      <root>
        <mxCell id="0" />
        <mxCell id="1" parent="0" />
        <mxCell id="NYJPz3Wt9wFaXJw068Cz-1" value="&lt;span id=&quot;docs-internal-guid-300aa276-7fff-008d-d82a-03845a1bc5f4&quot; style=&quot;font-weight:normal;&quot;&gt;&lt;span style=&quot;font-family: Arial, sans-serif; background-color: transparent; font-weight: 700; font-variant-numeric: normal; font-variant-east-asian: normal; font-variant-alternates: normal; font-variant-position: normal; font-variant-emoji: normal; vertical-align: baseline; white-space-collapse: preserve;&quot;&gt;&lt;font style=&quot;font-size: 18px;&quot;&gt;Gym Minder&lt;/font&gt;&lt;/span&gt;&lt;/span&gt;" style="shape=rect;html=1;verticalAlign=top;fontStyle=1;whiteSpace=wrap;align=center;" parent="1" vertex="1">
          <mxGeometry x="124" y="470" width="579" height="1340" as="geometry" />
        </mxCell>
        <mxCell id="NYJPz3Wt9wFaXJw068Cz-2" value="Gym Owner" style="shape=umlActor;html=1;verticalLabelPosition=bottom;verticalAlign=top;align=center;" parent="1" vertex="1">
          <mxGeometry x="50" y="690" width="30" height="60" as="geometry" />
        </mxCell>
        <mxCell id="NYJPz3Wt9wFaXJw068Cz-4" value="Authentification" style="ellipse;whiteSpace=wrap;html=1;" parent="1" vertex="1">
          <mxGeometry x="205" y="1060" width="110" height="60" as="geometry" />
        </mxCell>
        <mxCell id="NYJPz3Wt9wFaXJw068Cz-14" value="Reset Password" style="ellipse;whiteSpace=wrap;html=1;" parent="1" vertex="1">
          <mxGeometry x="460" y="1065.5" width="100" height="49" as="geometry" />
        </mxCell>
        <mxCell id="NYJPz3Wt9wFaXJw068Cz-20" value="Manage Clients" style="ellipse;whiteSpace=wrap;html=1;" parent="1" vertex="1">
          <mxGeometry x="220" y="625" width="110" height="60" as="geometry" />
        </mxCell>
        <mxCell id="NYJPz3Wt9wFaXJw068Cz-22" value="Crud gym members" style="ellipse;whiteSpace=wrap;html=1;" parent="1" vertex="1">
          <mxGeometry x="394.5" y="585" width="110" height="60" as="geometry" />
        </mxCell>
        <mxCell id="NYJPz3Wt9wFaXJw068Cz-25" value="Statistics" style="ellipse;whiteSpace=wrap;html=1;" parent="1" vertex="1">
          <mxGeometry x="380" y="530" width="100" height="50" as="geometry" />
        </mxCell>
        <mxCell id="NYJPz3Wt9wFaXJw068Cz-30" value="Search clients" style="ellipse;whiteSpace=wrap;html=1;" parent="1" vertex="1">
          <mxGeometry x="394.5" y="687.46" width="110" height="60" as="geometry" />
        </mxCell>
        <mxCell id="NYJPz3Wt9wFaXJw068Cz-32" value="Track members attendance" style="ellipse;whiteSpace=wrap;html=1;" parent="1" vertex="1">
          <mxGeometry x="284.5" y="717.46" width="110" height="60" as="geometry" />
        </mxCell>
        <mxCell id="hqJBW17tH3adHcJB-tME-5" value="Administrator" style="shape=umlActor;html=1;verticalLabelPosition=bottom;verticalAlign=top;align=center;" vertex="1" parent="1">
          <mxGeometry x="50" y="1200" width="30" height="60" as="geometry" />
        </mxCell>
        <mxCell id="hqJBW17tH3adHcJB-tME-15" value="&amp;lt;&amp;lt;extend&amp;gt;&amp;gt;" style="html=1;verticalAlign=bottom;labelBackgroundColor=none;endArrow=open;endFill=0;dashed=1;rounded=0;exitX=0;exitY=0.5;exitDx=0;exitDy=0;entryX=1;entryY=0.5;entryDx=0;entryDy=0;" edge="1" parent="1" source="NYJPz3Wt9wFaXJw068Cz-14" target="NYJPz3Wt9wFaXJw068Cz-4">
          <mxGeometry width="160" relative="1" as="geometry">
            <mxPoint x="515" y="1090" as="sourcePoint" />
            <mxPoint x="455" y="1120" as="targetPoint" />
          </mxGeometry>
        </mxCell>
        <mxCell id="hqJBW17tH3adHcJB-tME-16" value="" style="endArrow=none;startArrow=none;endFill=0;startFill=0;endSize=8;html=1;verticalAlign=bottom;labelBackgroundColor=none;strokeWidth=1;rounded=0;exitX=0.574;exitY=0.775;exitDx=0;exitDy=0;exitPerimeter=0;entryX=0;entryY=0.5;entryDx=0;entryDy=0;" edge="1" parent="1" source="NYJPz3Wt9wFaXJw068Cz-2" target="NYJPz3Wt9wFaXJw068Cz-4">
          <mxGeometry width="160" relative="1" as="geometry">
            <mxPoint x="80" y="440" as="sourcePoint" />
            <mxPoint x="190" y="440" as="targetPoint" />
          </mxGeometry>
        </mxCell>
        <mxCell id="hqJBW17tH3adHcJB-tME-18" value="" style="endArrow=none;startArrow=none;endFill=0;startFill=0;endSize=8;html=1;verticalAlign=bottom;labelBackgroundColor=none;strokeWidth=1;rounded=0;entryX=0;entryY=0.5;entryDx=0;entryDy=0;exitX=1;exitY=0.3333333333333333;exitDx=0;exitDy=0;exitPerimeter=0;" edge="1" parent="1" source="NYJPz3Wt9wFaXJw068Cz-2" target="NYJPz3Wt9wFaXJw068Cz-20">
          <mxGeometry width="160" relative="1" as="geometry">
            <mxPoint x="90" y="451" as="sourcePoint" />
            <mxPoint x="190" y="460" as="targetPoint" />
          </mxGeometry>
        </mxCell>
        <mxCell id="hqJBW17tH3adHcJB-tME-21" value="" style="endArrow=block;endSize=16;endFill=0;html=1;rounded=0;exitX=0;exitY=0.5;exitDx=0;exitDy=0;entryX=0.983;entryY=0.38;entryDx=0;entryDy=0;entryPerimeter=0;" edge="1" parent="1" source="NYJPz3Wt9wFaXJw068Cz-22" target="NYJPz3Wt9wFaXJw068Cz-20">
          <mxGeometry x="-1" y="104" width="160" relative="1" as="geometry">
            <mxPoint x="395" y="615" as="sourcePoint" />
            <mxPoint x="330" y="655" as="targetPoint" />
            <mxPoint x="41" y="-48" as="offset" />
          </mxGeometry>
        </mxCell>
        <mxCell id="hqJBW17tH3adHcJB-tME-23" value="" style="endArrow=block;endSize=16;endFill=0;html=1;rounded=0;entryX=0.97;entryY=0.688;entryDx=0;entryDy=0;entryPerimeter=0;exitX=0.077;exitY=0.255;exitDx=0;exitDy=0;exitPerimeter=0;" edge="1" parent="1" source="NYJPz3Wt9wFaXJw068Cz-30" target="NYJPz3Wt9wFaXJw068Cz-20">
          <mxGeometry x="-1" y="104" width="160" relative="1" as="geometry">
            <mxPoint x="396" y="701.46" as="sourcePoint" />
            <mxPoint x="308.3899999999999" y="645" as="targetPoint" />
            <mxPoint x="41" y="-48" as="offset" />
          </mxGeometry>
        </mxCell>
        <mxCell id="hqJBW17tH3adHcJB-tME-24" value="" style="endArrow=block;endSize=16;endFill=0;html=1;rounded=0;entryX=1;entryY=1;entryDx=0;entryDy=0;exitX=0.413;exitY=0.022;exitDx=0;exitDy=0;exitPerimeter=0;" edge="1" parent="1" source="NYJPz3Wt9wFaXJw068Cz-32" target="NYJPz3Wt9wFaXJw068Cz-20">
          <mxGeometry x="-1" y="104" width="160" relative="1" as="geometry">
            <mxPoint x="348.5" y="717.46" as="sourcePoint" />
            <mxPoint x="281" y="647.46" as="targetPoint" />
            <mxPoint x="41" y="-48" as="offset" />
          </mxGeometry>
        </mxCell>
        <mxCell id="hqJBW17tH3adHcJB-tME-25" value="Gym Owner Dashboard" style="ellipse;whiteSpace=wrap;html=1;" vertex="1" parent="1">
          <mxGeometry x="205" y="530" width="115" height="60" as="geometry" />
        </mxCell>
        <mxCell id="hqJBW17tH3adHcJB-tME-26" value="" style="endArrow=none;startArrow=none;endFill=0;startFill=0;endSize=8;html=1;verticalAlign=bottom;labelBackgroundColor=none;strokeWidth=1;rounded=0;entryX=0;entryY=1;entryDx=0;entryDy=0;exitX=1;exitY=0.3333333333333333;exitDx=0;exitDy=0;exitPerimeter=0;" edge="1" parent="1" source="NYJPz3Wt9wFaXJw068Cz-2" target="hqJBW17tH3adHcJB-tME-25">
          <mxGeometry width="160" relative="1" as="geometry">
            <mxPoint x="80" y="642.5" as="sourcePoint" />
            <mxPoint x="220" y="587.5" as="targetPoint" />
          </mxGeometry>
        </mxCell>
        <mxCell id="hqJBW17tH3adHcJB-tME-27" value="&amp;lt;&amp;lt;include&amp;gt;&amp;gt;" style="html=1;verticalAlign=bottom;labelBackgroundColor=none;endArrow=open;endFill=0;dashed=1;rounded=0;exitX=0.215;exitY=0.972;exitDx=0;exitDy=0;exitPerimeter=0;entryX=0.5;entryY=0;entryDx=0;entryDy=0;" edge="1" parent="1" source="hqJBW17tH3adHcJB-tME-25" target="NYJPz3Wt9wFaXJw068Cz-4">
          <mxGeometry width="160" relative="1" as="geometry">
            <mxPoint x="330" y="520" as="sourcePoint" />
            <mxPoint x="379.21000000000004" y="1145.8" as="targetPoint" />
            <Array as="points">
              <mxPoint x="180" y="650" />
              <mxPoint x="190" y="990" />
            </Array>
          </mxGeometry>
        </mxCell>
        <mxCell id="hqJBW17tH3adHcJB-tME-28" value="&amp;lt;&amp;lt;include&amp;gt;&amp;gt;" style="html=1;verticalAlign=bottom;labelBackgroundColor=none;endArrow=open;endFill=0;dashed=1;rounded=0;exitX=0.249;exitY=0.904;exitDx=0;exitDy=0;exitPerimeter=0;" edge="1" parent="1" source="NYJPz3Wt9wFaXJw068Cz-20">
          <mxGeometry width="160" relative="1" as="geometry">
            <mxPoint x="300" y="635" as="sourcePoint" />
            <mxPoint x="275" y="1060" as="targetPoint" />
            <Array as="points">
              <mxPoint x="210" y="720" />
              <mxPoint x="210" y="930" />
            </Array>
          </mxGeometry>
        </mxCell>
        <mxCell id="hqJBW17tH3adHcJB-tME-29" value="Manage Payments" style="ellipse;whiteSpace=wrap;html=1;" vertex="1" parent="1">
          <mxGeometry x="220" y="830" width="110" height="60" as="geometry" />
        </mxCell>
        <mxCell id="hqJBW17tH3adHcJB-tME-30" value="Active/desactivate auto payments" style="ellipse;whiteSpace=wrap;html=1;movable=1;resizable=1;rotatable=1;deletable=1;editable=1;locked=0;connectable=1;" vertex="1" parent="1">
          <mxGeometry x="394.5" y="790" width="110" height="60" as="geometry" />
        </mxCell>
        <mxCell id="hqJBW17tH3adHcJB-tME-31" value="View payments history" style="ellipse;whiteSpace=wrap;html=1;" vertex="1" parent="1">
          <mxGeometry x="394.5" y="892.46" width="110" height="60" as="geometry" />
        </mxCell>
        <mxCell id="hqJBW17tH3adHcJB-tME-32" value="Pay manually" style="ellipse;whiteSpace=wrap;html=1;" vertex="1" parent="1">
          <mxGeometry x="284.5" y="922.46" width="110" height="60" as="geometry" />
        </mxCell>
        <mxCell id="hqJBW17tH3adHcJB-tME-33" value="" style="endArrow=block;endSize=16;endFill=0;html=1;rounded=0;exitX=0;exitY=0.5;exitDx=0;exitDy=0;entryX=0.983;entryY=0.38;entryDx=0;entryDy=0;entryPerimeter=0;" edge="1" parent="1" source="hqJBW17tH3adHcJB-tME-30" target="hqJBW17tH3adHcJB-tME-29">
          <mxGeometry x="-1" y="104" width="160" relative="1" as="geometry">
            <mxPoint x="395" y="820" as="sourcePoint" />
            <mxPoint x="330" y="860" as="targetPoint" />
            <mxPoint x="41" y="-48" as="offset" />
          </mxGeometry>
        </mxCell>
        <mxCell id="hqJBW17tH3adHcJB-tME-34" value="" style="endArrow=block;endSize=16;endFill=0;html=1;rounded=0;entryX=0.97;entryY=0.688;entryDx=0;entryDy=0;entryPerimeter=0;exitX=0.077;exitY=0.255;exitDx=0;exitDy=0;exitPerimeter=0;" edge="1" parent="1" source="hqJBW17tH3adHcJB-tME-31" target="hqJBW17tH3adHcJB-tME-29">
          <mxGeometry x="-1" y="104" width="160" relative="1" as="geometry">
            <mxPoint x="396" y="906.46" as="sourcePoint" />
            <mxPoint x="308.3899999999999" y="850" as="targetPoint" />
            <mxPoint x="41" y="-48" as="offset" />
          </mxGeometry>
        </mxCell>
        <mxCell id="hqJBW17tH3adHcJB-tME-35" value="" style="endArrow=block;endSize=16;endFill=0;html=1;rounded=0;entryX=1;entryY=1;entryDx=0;entryDy=0;exitX=0.413;exitY=0.022;exitDx=0;exitDy=0;exitPerimeter=0;" edge="1" parent="1" source="hqJBW17tH3adHcJB-tME-32" target="hqJBW17tH3adHcJB-tME-29">
          <mxGeometry x="-1" y="104" width="160" relative="1" as="geometry">
            <mxPoint x="348.5" y="922.46" as="sourcePoint" />
            <mxPoint x="281" y="852.46" as="targetPoint" />
            <mxPoint x="41" y="-48" as="offset" />
          </mxGeometry>
        </mxCell>
        <mxCell id="hqJBW17tH3adHcJB-tME-36" value="" style="endArrow=none;startArrow=none;endFill=0;startFill=0;endSize=8;html=1;verticalAlign=bottom;labelBackgroundColor=none;strokeWidth=1;rounded=0;entryX=0.084;entryY=0.286;entryDx=0;entryDy=0;exitX=0.735;exitY=0.764;exitDx=0;exitDy=0;exitPerimeter=0;entryPerimeter=0;" edge="1" parent="1" source="NYJPz3Wt9wFaXJw068Cz-2" target="hqJBW17tH3adHcJB-tME-29">
          <mxGeometry width="160" relative="1" as="geometry">
            <mxPoint x="90" y="720" as="sourcePoint" />
            <mxPoint x="230" y="665" as="targetPoint" />
          </mxGeometry>
        </mxCell>
        <mxCell id="hqJBW17tH3adHcJB-tME-37" value="&amp;lt;&amp;lt;include&amp;gt;&amp;gt;" style="html=1;verticalAlign=bottom;labelBackgroundColor=none;endArrow=open;endFill=0;dashed=1;rounded=0;entryX=1;entryY=0;entryDx=0;entryDy=0;exitX=0.349;exitY=0.968;exitDx=0;exitDy=0;exitPerimeter=0;" edge="1" parent="1" source="hqJBW17tH3adHcJB-tME-29" target="NYJPz3Wt9wFaXJw068Cz-4">
          <mxGeometry width="160" relative="1" as="geometry">
            <mxPoint x="330" y="860" as="sourcePoint" />
            <mxPoint x="439.14096724329534" y="1141.0759054386974" as="targetPoint" />
            <Array as="points">
              <mxPoint x="270" y="940" />
            </Array>
          </mxGeometry>
        </mxCell>
        <mxCell id="hqJBW17tH3adHcJB-tME-38" value="" style="endArrow=block;endSize=16;endFill=0;html=1;rounded=0;exitX=0;exitY=0.5;exitDx=0;exitDy=0;entryX=0.947;entryY=0.739;entryDx=0;entryDy=0;entryPerimeter=0;" edge="1" parent="1" source="NYJPz3Wt9wFaXJw068Cz-25" target="hqJBW17tH3adHcJB-tME-25">
          <mxGeometry x="-1" y="104" width="160" relative="1" as="geometry">
            <mxPoint x="380" y="547" as="sourcePoint" />
            <mxPoint x="313" y="580" as="targetPoint" />
            <mxPoint x="41" y="-48" as="offset" />
          </mxGeometry>
        </mxCell>
        <mxCell id="hqJBW17tH3adHcJB-tME-39" value="Website admin dashboard" style="ellipse;whiteSpace=wrap;html=1;" vertex="1" parent="1">
          <mxGeometry x="198.5" y="1190" width="140" height="70" as="geometry" />
        </mxCell>
        <mxCell id="hqJBW17tH3adHcJB-tME-41" value="" style="edgeStyle=none;html=1;endArrow=none;verticalAlign=bottom;rounded=0;exitX=0.5;exitY=0.5;exitDx=0;exitDy=0;exitPerimeter=0;entryX=0;entryY=1;entryDx=0;entryDy=0;" edge="1" parent="1" source="hqJBW17tH3adHcJB-tME-5" target="NYJPz3Wt9wFaXJw068Cz-4">
          <mxGeometry width="160" relative="1" as="geometry">
            <mxPoint x="180" y="1210" as="sourcePoint" />
            <mxPoint x="340" y="1210" as="targetPoint" />
          </mxGeometry>
        </mxCell>
        <mxCell id="hqJBW17tH3adHcJB-tME-42" value="Statistics" style="ellipse;whiteSpace=wrap;html=1;" vertex="1" parent="1">
          <mxGeometry x="404.5" y="1180" width="100" height="50" as="geometry" />
        </mxCell>
        <mxCell id="hqJBW17tH3adHcJB-tME-43" value="" style="endArrow=block;endSize=16;endFill=0;html=1;rounded=0;exitX=0;exitY=0.5;exitDx=0;exitDy=0;entryX=0.947;entryY=0.739;entryDx=0;entryDy=0;entryPerimeter=0;" edge="1" parent="1" source="hqJBW17tH3adHcJB-tME-42">
          <mxGeometry x="-1" y="104" width="160" relative="1" as="geometry">
            <mxPoint x="404.5" y="1197" as="sourcePoint" />
            <mxPoint x="338.5" y="1224" as="targetPoint" />
            <mxPoint x="41" y="-48" as="offset" />
          </mxGeometry>
        </mxCell>
        <mxCell id="hqJBW17tH3adHcJB-tME-44" value="" style="edgeStyle=none;html=1;endArrow=none;verticalAlign=bottom;rounded=0;exitX=0.5;exitY=0.5;exitDx=0;exitDy=0;exitPerimeter=0;entryX=0;entryY=0.5;entryDx=0;entryDy=0;" edge="1" parent="1" source="hqJBW17tH3adHcJB-tME-5" target="hqJBW17tH3adHcJB-tME-39">
          <mxGeometry width="160" relative="1" as="geometry">
            <mxPoint x="75" y="1240" as="sourcePoint" />
            <mxPoint x="231" y="1121" as="targetPoint" />
          </mxGeometry>
        </mxCell>
        <mxCell id="hqJBW17tH3adHcJB-tME-45" value="Manage gym owners" style="ellipse;whiteSpace=wrap;html=1;" vertex="1" parent="1">
          <mxGeometry x="220" y="1300" width="110" height="60" as="geometry" />
        </mxCell>
        <mxCell id="hqJBW17tH3adHcJB-tME-46" value="activate/ desactivate gym owner account" style="ellipse;whiteSpace=wrap;html=1;" vertex="1" parent="1">
          <mxGeometry x="394.5" y="1260" width="110" height="60" as="geometry" />
        </mxCell>
        <mxCell id="hqJBW17tH3adHcJB-tME-47" value="See gym owner payment history" style="ellipse;whiteSpace=wrap;html=1;" vertex="1" parent="1">
          <mxGeometry x="394.5" y="1362.46" width="110" height="60" as="geometry" />
        </mxCell>
        <mxCell id="hqJBW17tH3adHcJB-tME-48" value="" style="endArrow=block;endSize=16;endFill=0;html=1;rounded=0;exitX=0;exitY=0.5;exitDx=0;exitDy=0;entryX=0.983;entryY=0.38;entryDx=0;entryDy=0;entryPerimeter=0;" edge="1" parent="1" source="hqJBW17tH3adHcJB-tME-46" target="hqJBW17tH3adHcJB-tME-45">
          <mxGeometry x="-1" y="104" width="160" relative="1" as="geometry">
            <mxPoint x="395" y="1290" as="sourcePoint" />
            <mxPoint x="330" y="1330" as="targetPoint" />
            <mxPoint x="41" y="-48" as="offset" />
          </mxGeometry>
        </mxCell>
        <mxCell id="hqJBW17tH3adHcJB-tME-49" value="" style="endArrow=block;endSize=16;endFill=0;html=1;rounded=0;entryX=0.97;entryY=0.688;entryDx=0;entryDy=0;entryPerimeter=0;exitX=0.077;exitY=0.255;exitDx=0;exitDy=0;exitPerimeter=0;" edge="1" parent="1" source="hqJBW17tH3adHcJB-tME-47" target="hqJBW17tH3adHcJB-tME-45">
          <mxGeometry x="-1" y="104" width="160" relative="1" as="geometry">
            <mxPoint x="396" y="1376.46" as="sourcePoint" />
            <mxPoint x="308.3899999999999" y="1320" as="targetPoint" />
            <mxPoint x="41" y="-48" as="offset" />
          </mxGeometry>
        </mxCell>
        <mxCell id="hqJBW17tH3adHcJB-tME-56" value="Generate rappports" style="ellipse;whiteSpace=wrap;html=1;" vertex="1" parent="1">
          <mxGeometry x="220" y="1422.46" width="110" height="60" as="geometry" />
        </mxCell>
        <mxCell id="hqJBW17tH3adHcJB-tME-61" value="" style="edgeStyle=none;html=1;endArrow=none;verticalAlign=bottom;rounded=0;exitX=0.405;exitY=0.668;exitDx=0;exitDy=0;exitPerimeter=0;entryX=0.05;entryY=0.349;entryDx=0;entryDy=0;entryPerimeter=0;" edge="1" parent="1" source="hqJBW17tH3adHcJB-tME-5" target="hqJBW17tH3adHcJB-tME-45">
          <mxGeometry width="160" relative="1" as="geometry">
            <mxPoint x="75" y="1240" as="sourcePoint" />
            <mxPoint x="209" y="1235" as="targetPoint" />
          </mxGeometry>
        </mxCell>
        <mxCell id="hqJBW17tH3adHcJB-tME-62" value="" style="edgeStyle=none;html=1;endArrow=none;verticalAlign=bottom;rounded=0;exitX=0.181;exitY=0.851;exitDx=0;exitDy=0;exitPerimeter=0;entryX=0;entryY=0;entryDx=0;entryDy=0;" edge="1" parent="1" source="hqJBW17tH3adHcJB-tME-5" target="hqJBW17tH3adHcJB-tME-56">
          <mxGeometry width="160" relative="1" as="geometry">
            <mxPoint x="71" y="1250" as="sourcePoint" />
            <mxPoint x="205" y="1245" as="targetPoint" />
          </mxGeometry>
        </mxCell>
        <mxCell id="hqJBW17tH3adHcJB-tME-64" value="&amp;lt;&amp;lt;include&amp;gt;&amp;gt;" style="edgeStyle=none;html=1;endArrow=open;verticalAlign=bottom;dashed=1;labelBackgroundColor=none;rounded=0;entryX=0.569;entryY=0.939;entryDx=0;entryDy=0;entryPerimeter=0;exitX=0.566;exitY=0.054;exitDx=0;exitDy=0;exitPerimeter=0;" edge="1" parent="1" source="hqJBW17tH3adHcJB-tME-39" target="NYJPz3Wt9wFaXJw068Cz-4">
          <mxGeometry width="160" relative="1" as="geometry">
            <mxPoint x="350" y="1150" as="sourcePoint" />
            <mxPoint x="510" y="1150" as="targetPoint" />
          </mxGeometry>
        </mxCell>
        <mxCell id="hqJBW17tH3adHcJB-tME-65" value="&amp;lt;&amp;lt;include&amp;gt;&amp;gt;" style="edgeStyle=none;html=1;endArrow=open;verticalAlign=bottom;dashed=1;labelBackgroundColor=none;rounded=0;exitX=1;exitY=0.5;exitDx=0;exitDy=0;entryX=0.975;entryY=0.716;entryDx=0;entryDy=0;entryPerimeter=0;" edge="1" parent="1" source="hqJBW17tH3adHcJB-tME-45" target="hqJBW17tH3adHcJB-tME-39">
          <mxGeometry width="160" relative="1" as="geometry">
            <mxPoint x="370" y="1330" as="sourcePoint" />
            <mxPoint x="530" y="1330" as="targetPoint" />
            <Array as="points">
              <mxPoint x="610" y="1330" />
              <mxPoint x="600" y="1250" />
            </Array>
          </mxGeometry>
        </mxCell>
        <mxCell id="hqJBW17tH3adHcJB-tME-66" value="&amp;lt;&amp;lt;include&amp;gt;&amp;gt;" style="edgeStyle=none;html=1;endArrow=open;verticalAlign=bottom;dashed=1;labelBackgroundColor=none;rounded=0;exitX=1;exitY=0.5;exitDx=0;exitDy=0;entryX=0.801;entryY=0.872;entryDx=0;entryDy=0;entryPerimeter=0;" edge="1" parent="1" target="hqJBW17tH3adHcJB-tME-39">
          <mxGeometry width="160" relative="1" as="geometry">
            <mxPoint x="330" y="1452.46" as="sourcePoint" />
            <mxPoint x="335" y="1362.46" as="targetPoint" />
            <Array as="points">
              <mxPoint x="660" y="1450" />
              <mxPoint x="660" y="1260" />
            </Array>
          </mxGeometry>
        </mxCell>
        <mxCell id="hqJBW17tH3adHcJB-tME-67" value="ActorName" style="shape=umlActor;html=1;verticalLabelPosition=bottom;verticalAlign=top;align=center;" vertex="1" parent="1">
          <mxGeometry x="750" y="1530" width="30" height="60" as="geometry" />
        </mxCell>
        <mxCell id="hqJBW17tH3adHcJB-tME-68" value="Send notification about soubscription" style="ellipse;whiteSpace=wrap;html=1;" vertex="1" parent="1">
          <mxGeometry x="490" y="1490" width="140" height="70" as="geometry" />
        </mxCell>
        <mxCell id="hqJBW17tH3adHcJB-tME-69" value="handle manual and automatic payments" style="ellipse;whiteSpace=wrap;html=1;" vertex="1" parent="1">
          <mxGeometry x="504.5" y="1610" width="125.5" height="70" as="geometry" />
        </mxCell>
        <mxCell id="hqJBW17tH3adHcJB-tME-71" value="" style="edgeStyle=none;html=1;endArrow=none;verticalAlign=bottom;rounded=0;entryX=0.337;entryY=0.354;entryDx=0;entryDy=0;entryPerimeter=0;exitX=0.933;exitY=0.811;exitDx=0;exitDy=0;exitPerimeter=0;" edge="1" parent="1" source="hqJBW17tH3adHcJB-tME-68" target="hqJBW17tH3adHcJB-tME-67">
          <mxGeometry width="160" relative="1" as="geometry">
            <mxPoint x="600" y="1550" as="sourcePoint" />
            <mxPoint x="760" y="1550" as="targetPoint" />
          </mxGeometry>
        </mxCell>
        <mxCell id="hqJBW17tH3adHcJB-tME-72" value="" style="edgeStyle=none;html=1;endArrow=none;verticalAlign=bottom;rounded=0;entryX=0.5;entryY=0.5;entryDx=0;entryDy=0;entryPerimeter=0;exitX=0.981;exitY=0.379;exitDx=0;exitDy=0;exitPerimeter=0;" edge="1" parent="1" source="hqJBW17tH3adHcJB-tME-69" target="hqJBW17tH3adHcJB-tME-67">
          <mxGeometry width="160" relative="1" as="geometry">
            <mxPoint x="631" y="1557" as="sourcePoint" />
            <mxPoint x="773" y="1587" as="targetPoint" />
          </mxGeometry>
        </mxCell>
      </root>
    </mxGraphModel>
  </diagram>
</mxfile>
